<svg xmlns="http://www.w3.org/2000/svg" xmlns:xlink="http://www.w3.org/1999/xlink" viewBox="0 0 178.71 199.42"><defs><style>.cls-1,.cls-8{fill:#fac761;}.cls-2,.cls-9{fill:none;}.cls-2{stroke:#ffe6af;stroke-miterlimit:10;stroke-width:5px;}.cls-3{clip-path:url(#clip-path);}.cls-4{fill:#f7a515;}.cls-5{font-size:20px;fill:#f7a500;font-family:Trebuchet-BoldItalic, Trebuchet MS;}.cls-5,.cls-8{font-weight:700;font-style:italic;}.cls-6{letter-spacing:-0.05em;}.cls-7{font-size:17px;font-family:GOST-CommonItalic, GOST CommonItalic;font-weight:400;}.cls-8{font-size:13px;font-family:ArialNarrow-BoldItalic, Arial;}</style><clipPath id="clip-path" transform="translate(-25.4 -12.33)"><path class="cls-1" d="M157.1,52.22l-31,91.43a11.44,11.44,0,0,1-10.83,7.77h-5.09a2.6,2.6,0,0,1-2.45-3.43l30.92-91.42a11.42,11.42,0,0,1,10.83-7.77h5.12A2.59,2.59,0,0,1,157.1,52.22Z"/></clipPath></defs><g id="V_Final_texto" data-name="V Final texto"><circle class="cls-2" cx="111.86" cy="93.18" r="78.36" transform="translate(-58.52 94.06) rotate(-45)"/><path class="cls-1" d="M157.1,52.22l-31,91.43a11.44,11.44,0,0,1-10.83,7.77h-5.09a2.6,2.6,0,0,1-2.45-3.43l30.92-91.42a11.42,11.42,0,0,1,10.83-7.77h5.12A2.59,2.59,0,0,1,157.1,52.22Z" transform="translate(-25.4 -12.33)"/><g class="cls-3"><path class="cls-4" d="M127.06,140.94c-1.38,9.9-2,8.51-8.38,11.06-1.29.51-5.45-.58-5.45-.58l-.46-18.21a17.62,17.62,0,0,0,7.14,7.87C125.13,143.9,127.06,140.94,127.06,140.94Z" transform="translate(-25.4 -12.33)"/></g><path class="cls-4" d="M68.43,52.22l31,91.43a11.44,11.44,0,0,0,10.83,7.77h5.09a2.6,2.6,0,0,0,2.46-3.43L86.85,56.57A11.43,11.43,0,0,0,76,48.8H70.89A2.59,2.59,0,0,0,68.43,52.22Z" transform="translate(-25.4 -12.33)"/><text class="cls-5" transform="translate(0 182.86)"><tspan class="cls-6">V</tspan><tspan x="12.72" y="0">icente Brisa Saez</tspan><tspan class="cls-7" x="175.11" y="0"> </tspan></text><text class="cls-8" transform="translate(0.41 195.43) scale(1.15 1)">VIDEO GAME PROGRAMMER</text><line class="cls-9" x1="3.38" y1="195.43" x2="172.93" y2="195.43"/></g></svg>