<svg xmlns="http://www.w3.org/2000/svg" xmlns:xlink="http://www.w3.org/1999/xlink" viewBox="0 0 51.32 59.62"><defs><style>.cls-1{fill:#fac761;}.cls-2{clip-path:url(#clip-path);}.cls-3{fill:#f7a515;}</style><clipPath id="clip-path" transform="translate(-86.31 -80.82)"><path class="cls-1" d="M137.55,82.79l-17.86,52.76a6.6,6.6,0,0,1-6.25,4.48H110.5a1.5,1.5,0,0,1-1.41-2L126.93,85.3a6.58,6.58,0,0,1,6.24-4.48h3A1.49,1.49,0,0,1,137.55,82.79Z"/></clipPath></defs><g id="V_Final_texto" data-name="V Final texto"><path class="cls-1" d="M137.55,82.79l-17.86,52.76a6.6,6.6,0,0,1-6.25,4.48H110.5a1.5,1.5,0,0,1-1.41-2L126.93,85.3a6.58,6.58,0,0,1,6.24-4.48h3A1.49,1.49,0,0,1,137.55,82.79Z" transform="translate(-86.31 -80.82)"/><g class="cls-2"><path class="cls-3" d="M120.22,134c-.8,5.71-1.14,4.91-4.84,6.38-.74.3-3.14-.33-3.14-.33L112,129.52a10.17,10.17,0,0,0,4.12,4.54C119.11,135.69,120.22,134,120.22,134Z" transform="translate(-86.31 -80.82)"/></g><path class="cls-3" d="M86.39,82.79l17.86,52.76A6.6,6.6,0,0,0,110.5,140h2.94a1.51,1.51,0,0,0,1.42-2L97,85.3a6.6,6.6,0,0,0-6.25-4.48h-3A1.49,1.49,0,0,0,86.39,82.79Z" transform="translate(-86.31 -80.82)"/></g></svg>