<svg xmlns="http://www.w3.org/2000/svg" xmlns:xlink="http://www.w3.org/1999/xlink" viewBox="0 0 27.68 32.16"><defs><style>.cls-1{fill:#f7a515;}.cls-2{clip-path:url(#clip-path);}</style><clipPath id="clip-path" transform="translate(-98.13 -96)"><path class="cls-1" d="M125.77,97.07l-9.64,28.45a3.55,3.55,0,0,1-3.37,2.42h-1.58a.81.81,0,0,1-.77-1.06L120,98.42A3.55,3.55,0,0,1,123.41,96H125A.81.81,0,0,1,125.77,97.07Z"/></clipPath></defs><g id="V_Final_texto" data-name="V Final texto"><path class="cls-1" d="M125.77,97.07l-9.64,28.45a3.55,3.55,0,0,1-3.37,2.42h-1.58a.81.81,0,0,1-.77-1.06L120,98.42A3.55,3.55,0,0,1,123.41,96H125A.81.81,0,0,1,125.77,97.07Z" transform="translate(-98.13 -96)"/><g class="cls-2"><path class="cls-1" d="M116.42,124.68c-.43,3.08-.62,2.65-2.61,3.44a4.68,4.68,0,0,1-1.69-.18l-.15-5.67a5.49,5.49,0,0,0,2.22,2.45C115.82,125.6,116.42,124.68,116.42,124.68Z" transform="translate(-98.13 -96)"/></g><path class="cls-1" d="M98.17,97.07l9.64,28.45a3.55,3.55,0,0,0,3.37,2.42h1.58a.81.81,0,0,0,.77-1.06L103.9,98.42A3.55,3.55,0,0,0,100.53,96H98.94A.81.81,0,0,0,98.17,97.07Z" transform="translate(-98.13 -96)"/></g></svg>